<svg width="464" height="464" xmlns="http://www.w3.org/2000/svg">

 <g>
  <title>Layer 1</title>
  <g id="svg_1">
   <g id="svg_2">
    <path fill="#ffffff" id="svg_3" d="m456,217.12l-102.32,0l0,-19.76c-0.005,-2.886 -1.564,-5.546 -4.08,-6.96l-109.6,-61.6l0,-31.36l21.68,0l0,11.92c0,4.418 3.582,8 8,8l65.36,0c4.418,-0.002 7.998,-3.585 7.997,-8.003c0,-0.926 -0.162,-1.845 -0.477,-2.717l-6.56,-18.64l6.64,-18.24c1.502,-4.155 -0.648,-8.741 -4.803,-10.243c-0.871,-0.315 -1.79,-0.476 -2.717,-0.477l-29.76,0l0,-11.6c0,-4.418 -3.582,-8 -8,-8l-57.36,0l0,-9.76c0,-4.418 -3.582,-8 -8,-8s-8,3.582 -8,8l0,99.12l-109.6,61.52c-2.516,1.414 -4.075,4.074 -4.08,6.96l0,19.76l-102.32,0c-4.418,0 -8,3.582 -8,8l0,209.28c0,4.418 3.582,8 8,8l448,0c4.418,0 8,-3.582 8,-8l0,-209.2c0,-4.418 -3.582,-8 -8,-8zm-150.64,-127.68l-0.32,-0.32l0,-13.76l18.24,0l-3.28,10.24c-0.655,1.782 -0.655,3.738 0,5.52l3.76,10.24l-46.08,0l0,-3.92l19.68,0c4.418,0 8,-3.582 8,-8zm-65.36,-34l49.36,0l0,11.92l0,14.08l-49.36,0l0,-26zm-129.68,370.88l-94.32,0l0,-193.2l94.32,0l0,193.2zm113.68,0l-42,0l0,-91.36l42,0l0,91.36zm58,0l-42,0l0,-91.36l42,0l0,91.36zm56,0l-40,0l0,-99.36c0,-4.418 -3.582,-8 -8,-8l-116,0c-4.418,0 -8,3.582 -8,8l0,99.36l-40,0l0,-224l106,-59.68l105.68,59.36l0.32,23.04l0,201.28zm110,0l-94.32,0l0,-193.2l94.32,0l0,193.2z"/>
   </g>
  </g>
  <g id="svg_4">
   <g id="svg_5">
    <path fill="#ffffff" id="svg_6" d="m232,167.12c-18.526,0.044 -33.52,15.074 -33.52,33.6c0.044,18.513 15.087,33.484 33.6,33.44c18.513,-0.044 33.484,-15.087 33.44,-33.6c-0.044,-18.481 -15.039,-33.44 -33.52,-33.44zm0,51.04c-9.676,-0.044 -17.484,-7.924 -17.44,-17.6c0.044,-9.613 7.826,-17.396 17.44,-17.44c9.689,0.044 17.52,7.911 17.52,17.6l0.08,0c-0.044,9.676 -7.924,17.484 -17.6,17.44z"/>
   </g>
  </g>
  <g id="svg_7">
   <g id="svg_8">
    <rect fill="#ffffff" id="svg_9" height="32" width="16" y="250.72" x="35.28"/>
   </g>
  </g>
  <g id="svg_10">
   <g id="svg_11">
    <rect fill="#ffffff" id="svg_12" height="32" width="16" y="250.72" x="74.72"/>
   </g>
  </g>
  <g id="svg_13">
   <g id="svg_14">
    <rect fill="#ffffff" id="svg_15" height="16" width="32" y="250.72" x="150.32"/>
   </g>
  </g>
  <g id="svg_16">
   <g id="svg_17">
    <rect fill="#ffffff" id="svg_18" height="16" width="32" y="250.72" x="216"/>
   </g>
  </g>
  <g id="svg_19">
   <g id="svg_20">
    <rect fill="#ffffff" id="svg_21" height="16" width="32" y="250.72" x="281.68"/>
   </g>
  </g>
  <g id="svg_22">
   <g id="svg_23">
    <rect fill="#ffffff" id="svg_24" height="16" width="32" y="288" x="150.32"/>
   </g>
  </g>
  <g id="svg_25">
   <g id="svg_26">
    <rect fill="#ffffff" id="svg_27" height="16" width="32" y="288" x="216"/>
   </g>
  </g>
  <g id="svg_28">
   <g id="svg_29">
    <rect fill="#ffffff" id="svg_30" height="16" width="32" y="288" x="281.68"/>
   </g>
  </g>
  <g id="svg_31">
   <g id="svg_32">
    <rect fill="#ffffff" id="svg_33" height="32" width="16" y="313.68" x="35.28"/>
   </g>
  </g>
  <g id="svg_34">
   <g id="svg_35">
    <rect fill="#ffffff" id="svg_36" height="32" width="16" y="313.68" x="74.72"/>
   </g>
  </g>
  <g id="svg_37">
   <g id="svg_38">
    <rect fill="#ffffff" id="svg_39" height="32" width="16" y="376.72" x="35.28"/>
   </g>
  </g>
  <g id="svg_40">
   <g id="svg_41">
    <rect fill="#ffffff" id="svg_42" height="32" width="16" y="376.72" x="74.72"/>
   </g>
  </g>
  <g id="svg_43">
   <g id="svg_44">
    <rect fill="#ffffff" id="svg_45" height="32" width="16" y="250.72" x="373.28"/>
   </g>
  </g>
  <g id="svg_46">
   <g id="svg_47">
    <rect fill="#ffffff" id="svg_48" height="32" width="16" y="250.72" x="412.72"/>
   </g>
  </g>
  <g id="svg_49">
   <g id="svg_50">
    <rect fill="#ffffff" id="svg_51" height="32" width="16" y="313.68" x="373.28"/>
   </g>
  </g>
  <g id="svg_52">
   <g id="svg_53">
    <rect fill="#ffffff" id="svg_54" height="32" width="16" y="313.68" x="412.72"/>
   </g>
  </g>
  <g id="svg_55">
   <g id="svg_56">
    <rect fill="#ffffff" id="svg_57" height="32" width="16" y="376.72" x="373.28"/>
   </g>
  </g>
  <g id="svg_58">
   <g id="svg_59">
    <rect fill="#ffffff" id="svg_60" height="32" width="16" y="376.72" x="412.72"/>
   </g>
  </g>
  <g id="svg_61"/>
  <g id="svg_62"/>
  <g id="svg_63"/>
  <g id="svg_64"/>
  <g id="svg_65"/>
  <g id="svg_66"/>
  <g id="svg_67"/>
  <g id="svg_68"/>
  <g id="svg_69"/>
  <g id="svg_70"/>
  <g id="svg_71"/>
  <g id="svg_72"/>
  <g id="svg_73"/>
  <g id="svg_74"/>
  <g id="svg_75"/>
 </g>
</svg>